<svg xmlns="http://www.w3.org/2000/svg" xmlns:xlink="http://www.w3.org/1999/xlink" width="500" zoomAndPan="magnify" viewBox="0 0 375 374.999991" height="500" preserveAspectRatio="xMidYMid meet" version="1.0"><path fill="#000000" d="M 190.746094 129.300781 C 183.808594 133.273438 177.796875 135.09375 172.9375 134.648438 C 170.082031 134.351562 167 133.570312 165.035156 132.53125 C 163.441406 131.714844 163.476562 131.714844 161.992188 134.203125 L 161.398438 135.203125 L 163.402344 136.132812 C 167.707031 138.023438 172.863281 138.804688 176.871094 138.171875 C 179.800781 137.691406 184.140625 135.945312 188.335938 133.609375 L 191.300781 131.898438 L 191.523438 137.171875 C 191.859375 143.886719 192.5625 147.191406 194.605469 151.347656 C 196.199219 154.6875 199.761719 160.066406 200.355469 160.066406 C 200.503906 160.066406 201.132812 159.363281 201.765625 158.472656 L 202.914062 156.914062 L 200.800781 154.613281 C 199.652344 153.386719 198.203125 151.457031 197.648438 150.417969 C 196.015625 147.414062 194.828125 140.992188 194.566406 133.609375 C 194.457031 130.191406 194.234375 127.410156 194.121094 127.445312 C 194.011719 127.445312 192.488281 128.300781 190.746094 129.300781 Z M 190.746094 129.300781 " fill-opacity="1" fill-rule="nonzero"/><path fill="#000000" d="M 208.035156 131.527344 C 207.664062 133.496094 207.8125 137.503906 208.371094 140.101562 C 209.445312 145.1875 212.671875 149.9375 218.3125 154.722656 C 219.683594 155.910156 220.796875 156.949219 220.796875 157.0625 C 220.796875 157.171875 219.238281 157.839844 217.347656 158.507812 C 215.492188 159.175781 212.339844 160.511719 210.410156 161.476562 C 207.332031 162.960938 206.402344 163.667969 202.953125 167.082031 C 199.09375 170.976562 196.644531 174.316406 197.277344 174.875 C 197.574219 175.171875 200.875 176.0625 200.949219 175.914062 C 202.136719 173.425781 204.660156 169.640625 205.957031 168.453125 C 208.964844 165.632812 214.640625 162.738281 222.726562 159.882812 L 226.660156 158.507812 L 224.210938 156.394531 C 218.054688 151.085938 214.714844 146.96875 213.042969 142.625 C 212.226562 140.546875 212.117188 139.582031 212.078125 135.6875 L 212.078125 131.15625 L 210.519531 130.785156 C 208.371094 130.230469 208.296875 130.230469 208.035156 131.527344 Z M 208.035156 131.527344 " fill-opacity="1" fill-rule="nonzero"/><path fill="#000000" d="M 154.128906 147.859375 C 155.167969 152.125 155.648438 156.023438 155.648438 160.4375 C 155.648438 164.929688 155.574219 165.707031 154.722656 167.898438 C 153.609375 170.792969 150.675781 175.320312 149.378906 176.171875 C 148.152344 176.953125 148.226562 177.398438 149.675781 179.105469 L 150.863281 180.515625 L 152.605469 178.511719 C 155.238281 175.46875 157.28125 172.054688 158.097656 169.417969 C 159.097656 166.226562 159.097656 160.625 158.097656 155.578125 C 157.6875 153.460938 157.429688 151.71875 157.503906 151.644531 C 157.578125 151.53125 159.285156 151.976562 161.289062 152.609375 C 169.078125 155.019531 173.269531 155.464844 179.429688 154.5 C 182.769531 153.980469 186.886719 152.792969 187.222656 152.273438 C 187.371094 152.050781 186.925781 151.199219 186.257812 150.382812 C 185.402344 149.304688 184.921875 148.972656 184.476562 149.15625 C 179.949219 151.125 177.835938 151.644531 174.421875 151.644531 C 169.710938 151.605469 160.878906 149.640625 154.5 147.191406 C 154.015625 147.003906 153.941406 147.152344 154.128906 147.859375 Z M 154.128906 147.859375 " fill-opacity="1" fill-rule="nonzero"/><path fill="#000000" d="M 173.605469 162.21875 L 171.824219 162.777344 L 171.898438 166.894531 C 171.9375 169.417969 171.75 171.570312 171.453125 172.5 C 170.15625 176.46875 166.148438 183.222656 161.992188 188.421875 C 160.878906 189.832031 160.027344 191.054688 160.101562 191.128906 C 160.175781 191.203125 161.917969 191.539062 164.035156 191.835938 C 169.523438 192.652344 174.457031 193.988281 177.054688 195.359375 C 180.359375 197.140625 184.105469 200.777344 185.589844 203.671875 C 186.292969 205.007812 187.074219 206.085938 187.296875 206.085938 C 187.554688 206.085938 188.445312 205.824219 189.226562 205.492188 L 190.710938 204.898438 L 189.820312 203.152344 C 187.777344 199.070312 183.472656 194.65625 179.726562 192.761719 C 177.871094 191.835938 171.789062 190.277344 168.671875 189.941406 C 164.8125 189.535156 164.847656 189.792969 168.152344 185.375 C 173.125 178.695312 175.089844 173.613281 175.71875 165.78125 C 176.054688 161.8125 175.867188 161.515625 173.605469 162.21875 Z M 173.605469 162.21875 " fill-opacity="1" fill-rule="nonzero"/><path fill="#000000" d="M 224.433594 176.246094 C 221.355469 176.804688 217.980469 178.027344 215.417969 179.511719 C 212.117188 181.441406 206.8125 188.347656 204.917969 193.132812 C 204.621094 193.914062 204.25 194.582031 204.140625 194.582031 C 204.027344 194.542969 203.0625 193.28125 201.988281 191.6875 C 199.167969 187.53125 196.199219 184.039062 193.789062 182.109375 C 191.339844 180.179688 184.105469 176.46875 182.101562 176.136719 L 180.730469 175.914062 L 180.730469 179.996094 L 182.25 180.253906 C 183.101562 180.402344 185.105469 180.996094 186.738281 181.628906 C 189.226562 182.59375 190.191406 183.261719 192.488281 185.414062 C 195.679688 188.457031 198.910156 192.355469 201.800781 196.695312 C 202.914062 198.402344 203.953125 199.777344 204.066406 199.777344 C 204.175781 199.777344 204.957031 198.476562 205.734375 196.917969 C 207.886719 192.761719 211.152344 187.976562 213.230469 185.933594 C 216.382812 182.816406 221.835938 180.253906 225.769531 180.070312 L 227.476562 179.957031 L 227.476562 177.804688 C 227.476562 176.617188 227.4375 175.652344 227.402344 175.691406 C 227.328125 175.691406 225.992188 175.949219 224.433594 176.246094 Z M 224.433594 176.246094 " fill-opacity="1" fill-rule="nonzero"/></svg>